<svg xmlns="http://www.w3.org/2000/svg" width="41" height="41" viewBox="0 0 41 41" fill="none">
  <path d="M27.1904 2.12061L21.0615 8.24951V19.6919H32.5048L38.6328 13.564L40.0468 14.978L34.3329 20.6919L40.0468 26.4067L38.6328 27.8208L32.5048 21.6919H21.0615V33.1343L27.1904 39.2632L25.7763 40.6772L20.0615 34.9634L14.3476 40.6772L12.9335 39.2632L19.0615 33.1353V21.6919H7.61908L1.49017 27.8208L0.0761108 26.4067L5.78998 20.6919L0.0761108 14.978L1.49017 13.564L7.61908 19.6919H19.0615V8.24854L12.9335 2.12061L14.3476 0.706543L20.0615 6.42041L25.7763 0.706543L27.1904 2.12061ZM15.7617 26.4067L10.0615 32.106L8.6474 30.6919L14.3476 24.9917L15.7617 26.4067ZM31.4755 30.6919L30.0615 32.106L24.3613 26.4067L25.7763 24.9917L31.4755 30.6919ZM15.7617 14.978L14.3476 16.3921L8.6474 10.6919L10.0615 9.27783L15.7617 14.978ZM31.4755 10.6919L25.7763 16.3921L24.3613 14.978L30.0615 9.27783L31.4755 10.6919Z" fill="#BFFB4F"/>
</svg>