<svg xmlns="http://www.w3.org/2000/svg" height="45" viewBox="0 0 31 41" fill="none">
  <path d="M29.7335 26.6106C29.7335 16.6152 15.4478 2.33594 15.4478 2.33594C15.4478 2.33594 1.16211 16.6152 1.16211 26.6106C1.36148 30.2048 2.97597 33.5739 5.65274 35.9819C8.32954 38.3899 12.5907 39.4619 15.4478 39.4619C18.305 39.4619 22.5661 38.3899 25.243 35.9819C27.9198 33.5739 29.5341 30.2048 29.7335 26.6106Z" fill="#BFFB4F" fill-opacity="0.1"/>
  <path d="M16.1543 1.62891L15.4478 2.33594C16.1486 1.63488 16.154 1.62873 16.1543 1.62891L16.2002 1.67383C16.2286 1.70251 16.2696 1.74497 16.3232 1.7998C16.4307 1.90972 16.5877 2.07106 16.7861 2.2793C17.1829 2.69571 17.7478 3.29997 18.4248 4.05566C19.7783 5.5664 21.5854 7.68872 23.3945 10.1299C25.2012 12.5679 27.0249 15.3437 28.4004 18.1621C29.7692 20.9669 30.7333 23.8931 30.7334 26.6104V26.6387L30.7324 26.666C30.5184 30.5241 28.7854 34.1408 25.9121 36.7256C22.9993 39.3458 18.4713 40.4618 15.4482 40.4619C12.4253 40.4619 7.89725 39.3457 4.98438 36.7256C2.11116 34.1409 0.378085 30.5242 0.164062 26.666L0.162109 26.6387V26.6104C0.162173 23.8931 1.12632 20.9669 2.49512 18.1621C3.87064 15.3436 5.69514 12.568 7.50195 10.1299C9.31104 7.68872 11.1172 5.5664 12.4707 4.05566C13.1479 3.29976 13.7136 2.69574 14.1104 2.2793C14.3087 2.07116 14.4648 1.9097 14.5723 1.7998C14.626 1.74484 14.6679 1.70252 14.6963 1.67383C14.7104 1.65959 14.721 1.64815 14.7285 1.64062L14.7402 1.62891C14.7405 1.62868 14.7411 1.62848 15.3916 2.2793L14.7402 1.62891L15.4482 0.921875L16.1543 1.62891ZM15.4473 3.77539C15.0709 4.17245 14.5617 4.72003 13.9609 5.39062C12.6359 6.86959 10.8707 8.94225 9.1084 11.3203C7.34385 13.7014 5.596 16.3691 4.29297 19.0391C2.98723 21.7146 2.16708 24.3144 2.16211 26.5898C2.35524 29.9069 3.8497 33.0147 6.32129 35.2383C8.76203 37.4339 12.757 38.4619 15.4482 38.4619C18.1395 38.4618 22.1335 37.4338 24.5742 35.2383C27.0459 33.0148 28.5392 29.907 28.7324 26.5898C28.7275 24.3144 27.9083 21.7146 26.6025 19.0391C25.2995 16.3692 23.5516 13.7014 21.7871 11.3203C20.0249 8.94241 18.2606 6.86956 16.9355 5.39062C16.3344 4.71963 15.8238 4.17253 15.4473 3.77539Z" fill="#BFFB4F"/>
</svg>