<svg xmlns="http://www.w3.org/2000/svg" width="32" height="39" viewBox="0 0 32 39" fill="none">
  <path d="M30.9999 22.6919C30.9999 32.6919 23.5 37.6919 16 37.6919C8.49997 37.6919 1 32.6919 1 22.6919C1 15.1919 4.75 11.4419 7.25 10.1919C7.25 13.9419 8.5 16.4419 9.75 17.6919C17.25 15.1919 18.5 7.6919 18.5 2.69189C23.5 6.4419 30.9999 12.6919 30.9999 22.6919Z" fill="#BFFB4F" fill-opacity="0.1"/>
  <path d="M30 22.6919C30 14.165 24.2392 8.46684 19.4326 4.67236C19.0885 9.65957 17.2452 16.247 10.0664 18.6401L9.47949 18.8364L9.04297 18.3989C7.80261 17.1586 6.67074 14.9924 6.3457 11.9663C4.31752 13.5979 2 16.9261 2 22.6919C2 27.4205 3.763 30.8939 6.35156 33.1948C8.95853 35.5121 12.4631 36.6919 16 36.6919C19.5369 36.6919 23.0415 35.5121 25.6484 33.1948C28.2369 30.8939 30 27.4205 30 22.6919ZM32 22.6919C32 27.9632 30.0129 31.9899 26.9766 34.689C23.9586 37.3717 19.9631 38.6919 16 38.6919C12.0369 38.6919 8.04146 37.3717 5.02344 34.689C1.98701 31.9899 0 27.9633 0 22.6919C1.07365e-06 14.8161 3.96126 10.7181 6.80273 9.29736L8.25 8.57373V10.1919C8.25 13.2652 9.14011 15.3502 10.0488 16.519C16.3274 14.0502 17.5 7.49359 17.5 2.69189V0.691895L19.0996 1.89209C24.0874 5.63296 32 12.1516 32 22.6919Z" fill="#BFFB4F"/>
</svg>