<svg xmlns="http://www.w3.org/2000/svg" width="31" height="42" viewBox="0 0 31 42" fill="none">
  <path d="M7.58637 1.35714L1.1578 16.5286C1.06888 16.745 1.03448 16.9799 1.05765 17.2128C1.0808 17.4456 1.16077 17.6692 1.29057 17.8639C1.42034 18.0585 1.59597 18.2184 1.802 18.3293C2.008 18.4402 2.23811 18.4988 2.47208 18.5H10.4435L4.72923 38.5L29.2722 15.2429C29.4759 15.0464 29.6167 14.7938 29.677 14.5171C29.737 14.2405 29.7133 13.9522 29.6093 13.6889C29.5053 13.4256 29.3253 13.1992 29.0922 13.0384C28.8593 12.8776 28.5839 12.7896 28.3007 12.7857H17.5864L23.3007 1.35714H7.58637Z" fill="#BFFB4F" fill-opacity="0.1"/>
  <path d="M25.2096 0L19.4948 11.4287H28.6051C29.0864 11.4354 29.5548 11.585 29.9508 11.8584L30.0953 11.9658C30.4218 12.2287 30.6749 12.573 30.8297 12.9648C31.0062 13.4117 31.047 13.9014 30.945 14.3721C30.8426 14.8416 30.6036 15.2716 30.2575 15.6055L30.2506 15.6113L3.05433 41.3838L9.40882 19.1426H2.75746C2.35996 19.1405 1.96896 19.0411 1.61878 18.8525C1.26863 18.664 0.970253 18.3924 0.749644 18.0615C0.529044 17.7306 0.392565 17.3507 0.353159 16.9551L0.343394 16.8057C0.330329 16.4591 0.391861 16.1128 0.524058 15.791L0.527964 15.7812L7.21449 0H25.2096ZM2.37367 16.5518L2.34632 16.6523L2.34339 16.7568L2.36683 16.8584C2.37857 16.8912 2.39422 16.9229 2.41371 16.9521C2.4526 17.0104 2.50529 17.0586 2.56703 17.0918C2.62867 17.125 2.69796 17.1422 2.7682 17.1426H12.0602L6.98499 34.9023L28.8688 14.166L28.9108 14.1182C28.9493 14.068 28.9772 14.01 28.9909 13.9473C29.0085 13.865 29.0016 13.7785 28.9703 13.6992C28.9393 13.6206 28.885 13.5532 28.8151 13.5049C28.7629 13.4689 28.7034 13.4438 28.6412 13.4336L28.5778 13.4287H16.2594L21.9733 2H8.53968L2.37367 16.5518Z" fill="#BFFB4F"/>
</svg>