<svg xmlns="http://www.w3.org/2000/svg" width="40" height="40" viewBox="0 0 40 40" fill="none">
  <path d="M38.7181 9.96742C38.663 9.66799 38.5453 9.38354 38.373 9.13251C38.2007 8.88148 37.9775 8.66948 37.7181 8.51028L32.0038 14.2246C31.7373 14.5011 31.4178 14.721 31.0644 14.8713C30.711 15.0215 30.3307 15.0989 29.9467 15.0989C29.5627 15.0989 29.1824 15.0215 28.8291 14.8713C28.4756 14.721 28.1561 14.5011 27.8895 14.2246L25.7181 12.2817C25.1946 11.7476 24.9014 11.0296 24.9014 10.2817C24.9014 9.53385 25.1946 8.81579 25.7181 8.28171L31.4324 2.56742C31.3078 2.27467 31.1204 2.01288 30.8833 1.80057C30.6464 1.58827 30.3655 1.43065 30.061 1.33885C28.0672 0.941246 26.0018 1.11144 24.1 1.83005C22.1982 2.54867 20.5364 3.78682 19.3037 5.40357C18.071 7.02031 17.3171 8.95065 17.1277 10.9749C16.9503 12.871 17.2749 14.7782 18.0658 16.5057L2.73237 31.8391C1.60046 32.9711 1.61923 34.812 2.77399 35.9205L4.37619 37.4588C5.49376 38.5317 7.26276 38.5183 8.36416 37.4288L23.8737 22.0873C25.5512 22.7801 27.3784 23.0436 29.189 22.8495C31.1913 22.6349 33.0947 21.8691 34.6875 20.6374C36.2804 19.4057 37.5007 17.7562 38.2121 15.8725C38.9238 13.9889 39.099 11.9447 38.7181 9.96742Z" fill="#BFFB4F" fill-opacity="0.1"/>
  <path d="M23.9014 10.2814C23.9014 9.27182 24.2972 8.30215 25.0039 7.58117L30.1182 2.46691C30.0237 2.399 29.9193 2.34606 29.8086 2.30871C28.0159 1.96216 26.1617 2.12014 24.4531 2.76574C22.7267 3.41819 21.2177 4.54217 20.0986 6.00988C18.9797 7.47757 18.295 9.22994 18.123 11.0675C17.962 12.7889 18.2567 14.5207 18.9746 16.089L19.2646 16.7208L3.43945 32.546C2.70366 33.2819 2.71623 34.4788 3.46679 35.1993L5.06835 36.7374C5.79468 37.4347 6.94512 37.4261 7.66112 36.7179L23.6416 20.9093L24.2549 21.1632C25.7782 21.7923 27.4379 22.0308 29.082 21.8546C30.9004 21.6597 32.6293 20.9645 34.0762 19.8458C35.5225 18.7273 36.63 17.2293 37.2764 15.5187C37.9224 13.8081 38.0819 11.9519 37.7363 10.1564L37.7344 10.1495C37.7223 10.0849 37.703 10.0214 37.6807 9.96008L32.7109 14.9318L32.71 14.9308C32.3526 15.2979 31.9264 15.5908 31.4551 15.7911C30.978 15.9939 30.4647 16.0987 29.9463 16.0987C29.4277 16.0987 28.9145 15.9939 28.4375 15.7911C27.9804 15.5968 27.5662 15.3154 27.2158 14.964L25.0518 13.0265L25.0273 13.005L25.0039 12.9816C24.2972 12.2605 23.9014 11.291 23.9014 10.2814ZM25.9014 10.2814C25.9014 10.7626 26.0889 11.2244 26.4228 11.5704L28.5566 13.4796L28.584 13.504L28.6094 13.5304C28.7824 13.71 28.9902 13.8527 29.2197 13.9503C29.4492 14.0478 29.6967 14.0987 29.9463 14.0987C30.1958 14.0987 30.4431 14.048 30.6728 13.9503C30.9027 13.8526 31.111 13.71 31.2842 13.5304L31.29 13.5236L31.2969 13.5177L37.5693 7.24523L38.2412 7.65734C38.62 7.88982 38.9457 8.19996 39.1973 8.56652C39.4478 8.93151 39.6189 9.34437 39.7002 9.77844L39.7705 10.1837C40.0678 12.0799 39.9017 14.02 39.2861 15.838L39.1475 16.2257C38.3705 18.2822 37.0387 20.083 35.2998 21.4279C33.5604 22.7726 31.482 23.6095 29.2959 23.8439C27.5426 24.0318 25.7752 23.8255 24.1201 23.2491L9.06737 38.1398C7.58058 39.6103 5.19237 39.6282 3.68359 38.1798L2.08105 36.6417C0.522306 35.1451 0.497431 32.66 2.02538 31.132L16.8828 16.2726C16.2199 14.5629 15.9601 12.7178 16.1318 10.882C16.3387 8.67128 17.1626 6.56264 18.5088 4.79699C19.8549 3.03157 21.6694 1.67944 23.7461 0.894648C25.6933 0.158861 27.7979 -0.0502567 29.8476 0.284296L30.2568 0.357538L30.3037 0.367304L30.3496 0.380976C30.7943 0.515013 31.2046 0.745476 31.5508 1.05578C31.8966 1.3658 32.1704 1.74787 32.3525 2.17492L32.6172 2.79699L26.4316 8.98059C26.0914 9.3277 25.9014 9.79532 25.9014 10.2814Z" fill="#BFFB4F"/>
</svg>