<svg xmlns="http://www.w3.org/2000/svg" width="70" height="70" viewBox="0 0 70 70" fill="none">
  <path d="M0 28.8C0 18.7191 0 13.6786 1.96188 9.82817C3.6876 6.44125 6.44125 3.6876 9.82817 1.96188C13.6786 0 18.7191 0 28.8 0H41.2C51.2809 0 56.3214 0 60.1718 1.96188C63.5587 3.6876 66.3124 6.44125 68.0381 9.82817C70 13.6786 70 18.7191 70 28.8V41.2C70 51.2809 70 56.3214 68.0381 60.1718C66.3124 63.5587 63.5587 66.3124 60.1718 68.0381C56.3214 70 51.2809 70 41.2 70H28.8C18.7191 70 13.6786 70 9.82817 68.0381C6.44125 66.3124 3.6876 63.5587 1.96188 60.1718C0 56.3214 0 51.2809 0 41.2V28.8Z" fill="#252525"/>
  <path d="M22.832 51H14V19H22.832V51Z" fill="#A3E635"/>
  <path d="M58.502 19L56.0693 35L58.502 51H28.7627V43.832H49.0166L48.0996 38.2002H30.1709V31.7998H48.0996L49.0166 26.168H28.9766V19H58.502Z" fill="#A3E635"/>
</svg>